<?xml version="1.0" encoding="utf-8"?>
<!-- Generator: Adobe Illustrator 24.3.0, SVG Export Plug-In . SVG Version: 6.00 Build 0)  -->
<svg version="1.1" id="Lager_1" xmlns="http://www.w3.org/2000/svg" xmlns:xlink="http://www.w3.org/1999/xlink" x="0px" y="0px"
	 viewBox="0 0 1673.4 309.7" style="enable-background:new 0 0 1673.4 309.7;" xml:space="preserve">
<style type="text/css">
	.st0{fill:url(#SVGID_1_);}
	.st1{fill:#09080D;}
	.st2{fill:#7CB3E1;}
</style>
<g id="Faktura_stacked">
	
		<linearGradient id="SVGID_1_" gradientUnits="userSpaceOnUse" x1="0" y1="154.7722" x2="347.73" y2="154.7722" gradientTransform="matrix(1 0 0 -1 0 259.7867)">
		<stop  offset="0" style="stop-color:#7BB3E1"/>
		<stop  offset="1" style="stop-color:#BAD6EA"/>
	</linearGradient>
	<path class="st0" d="M339.1,95.8c-4.8,0-8.6,3.9-8.6,8.6c-0.1,48.8-39.6,88.3-88.4,88.4c-48.9,0-88.6-39.5-88.6-88.2
		c0-26.4-21.4-47.8-47.8-47.8h-0.2C79.3,57,58.2,77.9,57.8,104l0,0c0,0.1,0,0.2,0,0.3s0,0.2,0,0.3l0,0c0.5,26,21.6,46.8,47.6,47h0.1
		h0.5c2.8,0,5.7-0.3,8.4-0.9c6.7-1.3,13.1-4.1,18.7-8.1c2.8-1.9,5.5-4.1,7.9-6.4c1.3,4.1,2.8,8,4.6,11.9
		c-10.9,9.8-25,15.1-39.6,15.1c-32.8,0-59.5-26.4-59.8-59C46.3,71.4,73,44.9,105.8,45s59.3,26.8,59.2,59.6
		c0,42.1,34.6,76.3,77.1,76.3c42.3,0,76.6-34.3,76.7-76.7c-0.2-4.8-4.2-8.5-8.9-8.3c-4.5,0.2-8.2,3.8-8.3,8.3
		c0,32.8-26.6,59.4-59.4,59.4c-33,0-59.8-26.5-59.8-59.1c-0.4-42.3-35.1-76.3-77.4-75.9c-41.4,0.4-75,33.6-75.9,75.1l0,0
		c0,0.1,0,0.3,0,0.4s0,0.3,0,0.4l0,0c0.5,41.9,34.8,75.8,77,75.8c17.5,0,34.6-6,48.2-17c2.2,3.3,4.6,6.4,7.2,9.4
		c-15.7,12.7-35.2,19.5-55.4,19.5c-48.8,0-88.6-39.5-88.8-88.1c0.6-48.8,40.6-87.9,89.5-87.3c48.1,0.6,86.9,39.5,87.3,87.6
		c0,26.2,21.6,47.6,48.1,47.6c26.4,0,47.8-21.4,47.8-47.8c0-4.8-3.9-8.6-8.6-8.6c-4.8,0-8.6,3.9-8.6,8.6c0,16.9-13.7,30.6-30.6,30.6
		c-17,0-30.8-13.6-30.8-30.4C210.6,46.2,162.9-0.6,104.5,0C47.3,0.6,0.9,46.7,0,103.9l0,0c0,0.1,0,0.2,0,0.3s0,0.2,0,0.3l0,0
		c0.3,58,47.8,105,106,105c24.7,0.1,48.7-8.6,67.7-24.5c44.6,37.7,111.3,32.2,149-12.4c16.1-19.1,25-43.2,25-68.2
		C347.7,99.6,343.9,95.8,339.1,95.8C339.1,95.8,339.1,95.8,339.1,95.8z M112.2,133.5l-0.2,0l-0.6,0.1c-1.9,0.4-3.9,0.6-5.9,0.6
		c-10-0.1-19.4-5.1-25.1-13.3c-6.6-9.7-6.9-22.4-0.8-32.4c5.5-9,15.3-14.5,25.9-14.6c16.6,0.1,30.1,13.6,30,30.2
		c0,9.9-4.9,19.1-13,24.7C119.3,131,115.8,132.6,112.2,133.5L112.2,133.5z"/>
	<path class="st1" d="M425.1,118.4c0-37.2,25.4-66.6,62.4-66.6c15.9,0,30.7,5.6,41.5,19.4c0.3,0.4,1,0.5,1.4,0.2
		c0.2-0.2,0.4-0.5,0.4-0.8v-5.2c0-6,4.8-10.8,10.8-10.8h10.8c6,0,10.8,4.8,10.8,10.8v106.4c0,5.8-4.7,10.6-10.6,10.6h-11.3
		c-5.8,0-10.6-4.7-10.6-10.6v-5.5c0-0.6-0.5-1-1-1c-0.3,0-0.6,0.1-0.8,0.4c-10.7,13.8-25.5,19.4-41.5,19.4
		C450.5,185,425.1,155.6,425.1,118.4z M531.2,118.4c-0.3-22.9-15.1-39.7-37.5-39.7c-22.9,0-36.2,18.1-36.2,39.7
		c0,21.9,13.3,39.7,36.2,39.7C516.1,158.1,530.9,141.2,531.2,118.4z"/>
	<path class="st1" d="M588.8,119.4c0-37.2,27.2-67.6,72.9-67.6c13.8,0,27.3,3.8,39.2,10.8c6,3.5,6.8,9.3,2.5,14.8l-3,3.8
		c-4,5.5-8.5,5.8-14.8,2.8c-6.9-3.3-14.5-5-22.1-5c-24.4,0-42.2,16.3-42.2,39.5c0,23.4,17.8,39.7,42.2,39.7c7.6-0.1,15.2-1.8,22.1-5
		c6.3-3,11.1-2.8,14.8,2.5l3,4c4,5.5,2.8,12.1-5.5,16.3c-11.1,6-23.6,9.1-36.2,9.1C616.9,185,588.8,155.8,588.8,119.4z"/>
	<path class="st1" d="M721,119.4c0-37.2,27.2-67.6,72.9-67.6c13.8,0,27.3,3.8,39.2,10.8c6,3.5,6.8,9.3,2.5,14.8l-3,3.8
		c-4,5.5-8.5,5.8-14.8,2.8c-6.9-3.3-14.5-5-22.1-5c-24.4,0-42.2,16.3-42.2,39.5c0,23.4,17.8,39.7,42.2,39.7c7.6-0.1,15.2-1.8,22.1-5
		c6.3-3,11.1-2.8,14.8,2.5l3,4c4,5.5,2.8,12.1-5.5,16.3c-11.1,6-23.6,9.1-36.2,9.1C749.2,185,721,155.8,721,119.4z"/>
	<path class="st1" d="M853.3,118.4c0-36.7,29.9-66.6,68.9-66.6c39,0,69.1,30.2,69.1,66.6c0,37-30.2,66.6-69.1,66.6
		S853.3,155.3,853.3,118.4z M959.9,118.6c0-22.1-16.6-39.7-37.7-39.7s-37.7,17.6-37.7,39.7c0,21.9,16.6,39.2,37.7,39.2
		S959.9,140.5,959.9,118.6z"/>
	<path class="st1" d="M1017.2,171.7V65.3c0-6,4.8-10.8,10.8-10.8h10.8c6,0,10.8,4.8,10.8,10.8v7c0,0.6,0.5,1,1,1
		c0.4,0,0.7-0.2,0.9-0.5c6.8-13.4,20.8-21,38.6-21c31.2,0,47.8,22.6,47.8,57.6v62.4c0,5.8-4.7,10.6-10.6,10.6l0,0H1116
		c-5.8,0-10.6-4.7-10.6-10.6c0,0,0,0,0,0v-60.9c0-21.9-9.6-31.9-22.9-31.9c-13.1,0-32.9,9.8-32.9,41v51.8c0,5.8-4.7,10.6-10.6,10.6
		c0,0,0,0,0,0h-11.3C1021.9,182.2,1017.2,177.5,1017.2,171.7z"/>
	<path class="st1" d="M1162,118.4c0-36.7,29.9-66.6,68.9-66.6s69.1,30.2,69.1,66.6c0,37-30.2,66.6-69.1,66.6S1162,155.3,1162,118.4z
		 M1268.6,118.6c0-22.1-16.6-39.7-37.7-39.7s-37.7,17.6-37.7,39.7c0,21.9,16.6,39.2,37.7,39.2S1268.6,140.5,1268.6,118.6
		L1268.6,118.6z"/>
	<path class="st1" d="M1326,171.7V65.3c0-6,4.8-10.8,10.8-10.8l0,0h10.8c6,0,10.8,4.8,10.8,10.8v6.5c0,0.6,0.5,1,1,1
		c0.4,0,0.7-0.2,0.9-0.5c6.3-13.2,20-20.5,35.3-20.5c13.2,0,28.7,5,37.7,22.7c0.3,0.5,0.9,0.7,1.3,0.4c0.2-0.1,0.3-0.2,0.4-0.4
		c11.5-19.2,26.9-22.8,41.3-22.8c31.7,0,47.8,22.9,47.8,57.8v62.1c0,5.8-4.7,10.6-10.6,10.6l0,0h-11.1c-6,0-10.8-4.8-10.8-10.8
		v-61.1c0-21.6-9.1-31.4-21.6-31.4c-11.3,0-27.9,8.3-28.7,38.5v54.3c0,5.8-4.7,10.6-10.6,10.6l0,0h-11.3c-5.8,0-10.6-4.7-10.6-10.6
		c0,0,0,0,0,0v-61.3c0-21.6-9.3-31.4-21.9-31.4c-12.1,0-28.7,9.3-28.7,40.5v52.3c0,5.8-4.7,10.6-10.6,10.6c0,0,0,0,0,0h-11.3
		C1330.7,182.2,1326,177.5,1326,171.7z"/>
	<path class="st1" d="M1571.9,226.2l20.2-50.4c0.1-0.2,0.1-0.5,0-0.8l-47.8-108c-3.3-7.3,0.2-12.6,8.3-12.6h13.6
		c6,0,10.1,2.8,12.1,8.5l29.7,75.3c0.2,0.5,0.8,0.8,1.3,0.6c0.3-0.1,0.5-0.3,0.6-0.6l28.5-75.3c2.3-5.8,6.3-8.5,12.6-8.5h13.3
		c7.8,0,11.3,5,8,12.6l-70.4,163.4c-2.5,5.8-6.3,8-12.3,8h-9.3C1572.1,238.5,1568.9,233.5,1571.9,226.2z"/>
	<path class="st2" d="M1144.9,266.3c0,9.9-7.3,19.5-20.5,19.5H1096v-68.9h26.2c11.7,0,19,7,19,17.7c0,5.7-2.1,11.9-8.8,14.5
		C1140.6,250.8,1144.9,258.8,1144.9,266.3z M1122,226.3h-15.7v19h15.9c5.7,0,8.7-4,8.7-9.6C1130.9,230.3,1127.9,226.3,1122,226.3
		L1122,226.3z M1122.4,276.4c8,0,12.2-5.1,12.2-11.1c0-5.6-3.7-11.2-11.7-11.2h-16.6v22.3L1122.4,276.4z"/>
	<path class="st2" d="M1154.1,262.4c0-14.8,11.2-24.5,24.5-24.5s24.6,9.7,24.6,24.5c0,14.8-11.3,24.6-24.6,24.6
		S1154.1,277.2,1154.1,262.4z M1193.4,262.4c0-9-6.8-15.3-14.8-15.3s-14.7,6.3-14.7,15.3c0,9,6.7,15.4,14.7,15.4
		S1193.4,271.5,1193.4,262.4L1193.4,262.4z"/>
	<path class="st2" d="M1257.8,285.8H1245l-20.4-22.2v22.2h-9.8v-72.1h9.8V255l15.3-15.9h13.3l-19.7,20.2L1257.8,285.8z"/>
	<path class="st2" d="M1288.3,222.9c-8.1,0-10.3,4.8-10.2,10.7v5.5h10.7v8.2h-10.7v38.5h-9.8v-38.5h-9v-8.2h9v-4.4
		c0-12.7,5.5-21,18.2-21h5.2v9.2H1288.3z"/>
	<path class="st2" d="M1294,262.4c0-14.8,11.2-24.5,24.5-24.5s24.6,9.7,24.6,24.5c0,14.8-11.3,24.6-24.6,24.6S1294,277.2,1294,262.4
		z M1302.5,224.9c0.1-3.4,2.9-6.1,6.4-6c0,0,0,0,0,0c3.3,0,6.1,2.7,6.1,6.1c0,3.3-2.7,6-6.1,6
		C1305.5,231.1,1302.6,228.4,1302.5,224.9C1302.5,225,1302.5,224.9,1302.5,224.9L1302.5,224.9z M1333.3,262.4
		c0-9-6.8-15.3-14.8-15.3s-14.7,6.3-14.7,15.3c0,9,6.7,15.4,14.7,15.4S1333.3,271.5,1333.3,262.4L1333.3,262.4z M1321.9,224.9
		c0.1-3.4,2.9-6.1,6.4-6c0,0,0,0,0,0c3.3,0,6.1,2.7,6.1,6.1c0,3.3-2.7,6-6.1,6l0,0C1324.9,231.1,1322,228.4,1321.9,224.9
		C1321.9,225,1321.9,224.9,1321.9,224.9L1321.9,224.9z"/>
	<path class="st2" d="M1385.7,239.6l-1.7,9.3c-2.2-1-4.5-1.6-6.9-1.6c-8.5,0-12.5,9.1-12.5,21.7v16.8h-9.9v-46.7h9.9v10.5
		c2.4-8.2,7.1-11.7,13.1-11.7C1380.5,237.8,1383.2,238.4,1385.7,239.6z"/>
	<path class="st2" d="M1392.2,222.1c-0.2-3.7,2.6-6.9,6.3-7.1c3.7-0.2,6.9,2.6,7.1,6.3c0.2,3.7-2.6,6.9-6.3,7.1c-0.1,0-0.3,0-0.4,0
		C1395.4,228.5,1392.4,225.7,1392.2,222.1C1392.2,222.1,1392.2,222.1,1392.2,222.1z M1394,285.8v-46.7h9.8v46.7H1394z"/>
	<path class="st2" d="M1462.2,259.1v26.7h-9.8v-26.1c0-7.6-4.6-12.2-10.6-12.2s-13.5,3.5-13.5,13.2v25.1h-9.8v-46.7h9.8v7.2
		c2.7-5.8,10.2-8.4,15.2-8.4C1455.3,237.9,1462.3,245.8,1462.2,259.1z"/>
	<path class="st2" d="M1512.6,239.1h9.8v40.3c0,21.7-10,30.3-25.7,30.3c-9,0.1-17.3-4.9-21.4-12.9l8.3-4.1c2.6,4.8,7.6,7.9,13.1,7.9
		c9.8,0,15.9-5.6,15.9-20.4V279c-3.2,5.1-9.9,8-16.1,8c-12.7,0-23.2-9.8-23.2-24.6c0-14.8,10.5-24.5,23.1-24.5c6.5,0,13,2.8,16.2,8
		L1512.6,239.1z M1512.5,262.3c0.1-8.3-6.5-15.1-14.8-15.2c0,0-0.1,0-0.1,0c-8,0-14.5,6.4-14.5,15.2c0,8.8,6.5,15.5,14.5,15.5
		S1512.5,271.7,1512.5,262.3L1512.5,262.3z"/>
</g>
</svg>
