<svg id="Layer_1" data-name="Layer 1" xmlns="http://www.w3.org/2000/svg" viewBox="0 0 890.35 375.17"><defs><style>.cls-1{fill:#014b61;}</style></defs><title>Logotyp – Blue_RGB</title><path class="cls-1" d="M480.54,323.18l-13-40a8.82,8.82,0,0,0-1.84-3.19l-49.9-55.07a4.88,4.88,0,0,0-5-1.41L349.11,241.6h0l-57.81,16.94a4.9,4.9,0,0,0-3.19,2.93L264.13,323.8l-36.67.84a4.86,4.86,0,0,0-2.86,1l-38.33,29.5a9,9,0,0,0-1.7,1.74l-44.88,60.83a4.88,4.88,0,0,0-.8,4.09L149,461.76c0,.07.05.13.07.19a4.6,4.6,0,0,0,.25.65.85.85,0,0,0,.06.17l24.68,48.61a4.87,4.87,0,0,0,2.38,2.25l67.28,29.7a5,5,0,0,0,2,.41,4.94,4.94,0,0,0,2.49-.68l92.47-54.9a4.85,4.85,0,0,0,2.26-3.09L356.19,428l62.74-10.72a8.82,8.82,0,0,0,3.7-1.57l33-24.17a4.81,4.81,0,0,0,1.7-2.25l23.14-62.9A5,5,0,0,0,480.54,323.18ZM456.46,284.3l-43,62.51-64.28-33.08,5.9-63.73,55.52-16.27ZM354,418.46l-49.5-55.61-3.76-4.23,43.93-36.26,65.71,33.83,3.42,51.54c0,.17.06.33.08.5Zm-57.7-151.24L345.05,253l-5.65,61.14-45.13,37.24-21.15-23.75Zm-67,67.14,36.08-.84,20.06,22.54L239,373.91,198.6,358Zm-38.76,30.91,42.63,16.82-16,61.44-59.79,11.38-8.44-33.25Zm54.87,168.12-63.39-28-21-41.27L219.52,453l61.73,59.1Zm88.52-52.55-44,26.1L226.52,446.2l16.53-63.41,49.3-19,54.5,61.23Zm114.78-96.32-25.4,18.61-3.23-48.65,41-59.68,9.66,29.79Z" transform="translate(-138.74 -223.32)"/><path class="cls-1" d="M635.37,540.93a2.59,2.59,0,0,1-2.42,3.76H619.77a3.74,3.74,0,0,1-3.77-3L596.1,485.8H519.73l-19.91,55.94c-.8,1.88-1.61,3-3.76,3H483.69a2.62,2.62,0,0,1-2.69-3.76l67.77-184.49a3.27,3.27,0,0,1,3.5-2.42H564.1c2.15,0,3.23.8,3.76,2.42Zm-45.18-72.08-32-90.36-32.27,90.36Zm155.17,43.57c0,22.32-17.75,36.58-46.52,36.58-32.27,0-53.79-15.87-57.82-44.11-.27-1.88,1.07-3.23,3.22-3.76l9.68-2.16a3.86,3.86,0,0,1,4.85,2.69c5.37,21.25,19.36,30.93,40.07,30.93,18,0,28.77-7.53,28.77-19.63,0-7.53-3.22-12.91-18.28-18.83l-36-14c-18.29-7-26.63-18-26.63-31.74,0-21.78,18-36,43-36,24.21,0,44.92,12.91,50,34.69a3.65,3.65,0,0,1-2.69,4.57l-9.15,2.15c-3.22.81-4.57-.8-5.38-2.69-6.45-15.86-16.94-22.32-33.34-22.32-14.26,0-24.75,7.26-24.75,18.56,0,6.45,4.31,12.37,17.21,17.48l35.77,14C733,485,745.36,493.06,745.36,512.42ZM873.65,481c0,40.07-19.64,68-54.06,68-15.87,0-31.2-5.65-39.26-17.75V595a3.56,3.56,0,0,1-3.5,3.5H766.61a3.56,3.56,0,0,1-3.5-3.5V419.64a3.57,3.57,0,0,1,3.5-3.5h10.22a3.57,3.57,0,0,1,3.5,3.5v16.67l24.2-19.9c4.3-3.49,8.07-3.76,14-3.76C853.21,412.65,873.65,440.62,873.65,481Zm-17.75,0c0-30.93-13.72-51.64-37.65-51.64a28.34,28.34,0,0,0-5.65.54l-32.27,25.28v41.68c0,19.64,16.13,35.77,37.92,35.77C843.26,532.59,855.9,511.88,855.9,481Zm57.28-101.12v14.25a3.56,3.56,0,0,1-3.5,3.5H895.16a3.57,3.57,0,0,1-3.5-3.5V379.84a3.56,3.56,0,0,1,3.5-3.5h14.52A3.56,3.56,0,0,1,913.18,379.84ZM911,419.64V541.2a3.39,3.39,0,0,1-3.5,3.49H897.31a3.38,3.38,0,0,1-3.49-3.49V419.64a3.39,3.39,0,0,1,3.49-3.5h10.22A3.57,3.57,0,0,1,911,419.64ZM1029.09,453V541.2a3.55,3.55,0,0,1-3.5,3.49h-9.68a3.55,3.55,0,0,1-3.49-3.49V528.83c-5.92,11.83-18.56,19.63-37.12,19.63-26.35,0-43-14.52-43-36.85,0-16.4,7-27.16,31.74-36.57l47.87-18.29V454.6c0-16.94-11.83-25.82-28.51-25.82-17.75,0-28.77,10.49-33.35,26.36a3.43,3.43,0,0,1-3.76,2.69L935,455.41c-1.61-.27-2.42-2.15-2.15-3.77,3.77-22.32,23.94-39.26,50.29-39.26C1011.07,412.38,1029.09,428.24,1029.09,453Zm-17.21,48.14v-27.7l-41.42,15.86c-13.17,5.11-20.71,11-20.71,21.52,0,13.18,9.69,21.24,26.36,21.24C993.59,532.05,1011.88,521.3,1011.88,501.13Z" transform="translate(-138.74 -223.32)"/></svg>