<svg width="117" height="41" viewBox="0 0 117 41" fill="none" xmlns="http://www.w3.org/2000/svg">
<g id="Group">
<path id="Vector" d="M39.0521 25.3773L32.6679 20.5094L39.0521 15.6415C39.182 15.5433 39.2577 15.3904 39.2577 15.2281C39.2577 15.0658 39.182 14.9129 39.0521 14.8147L20.1257 0.38268C19.9373 0.238326 19.674 0.238326 19.4856 0.38268L0.559126 14.8138C0.429222 14.9121 0.353516 15.065 0.353516 15.2272V25.7907C0.353516 25.953 0.429222 26.1059 0.559126 26.2041L19.4856 40.6361C19.5802 40.7079 19.6929 40.7438 19.8056 40.7438C19.9183 40.7438 20.031 40.7079 20.1257 40.6361L39.0521 26.2041C39.182 26.1059 39.2577 25.953 39.2577 25.7907C39.2577 25.6284 39.182 25.4755 39.0521 25.3773ZM31.8059 19.8508L20.3313 11.1016V1.85355L37.8692 15.2272L31.8059 19.8508ZM19.8056 12.0164L30.943 20.5094L19.8056 29.0024L8.66826 20.5094L19.8056 12.0164ZM19.28 1.85355V11.1008L7.80538 19.8508L1.74203 15.2272L19.28 1.85355ZM1.40652 16.2873L6.94251 20.5094L1.40652 24.7316V16.2873ZM19.8056 39.565L1.74203 25.7907L7.80538 21.1671L19.4856 30.0735C19.5802 30.1453 19.6929 30.1811 19.8056 30.1811C19.9183 30.1811 20.031 30.1453 20.1257 30.0735L31.8059 21.1671L37.8692 25.7907L19.8056 39.565Z" fill="#FF5000"/>
<path id="Vector_2" d="M92.7294 14.7788C88.138 14.754 84.3949 18.4534 84.4044 23.007C84.4138 27.593 88.0916 31.283 92.6769 31.3061C97.2012 31.3291 100.844 27.6724 100.894 23.0591C100.943 18.5013 97.2967 14.8036 92.7294 14.7788ZM83.3281 23.036C83.323 17.9648 87.5298 13.7871 92.6486 13.7794C97.7759 13.7717 101.988 17.9358 101.99 23.013C101.991 28.1192 97.8163 32.3003 92.7096 32.3089C87.5444 32.3174 83.3333 28.1551 83.3281 23.036Z" fill="#253746"/>
<path id="Vector_3" d="M80.8184 13.9998H79.7422V31.9492H80.8184V13.9998Z" fill="#253746"/>
<path id="Vector_4" d="M116.718 31.9501L109.481 22.6909L116.274 13.9989H114.998L108.829 21.8572L102.688 13.9989H101.348L108.174 22.6918L100.904 31.9501H102.244L108.828 23.5254L115.442 31.9501H116.718Z" fill="#253746"/>
<g id="Group_2">
<path id="Vector_5" d="M81.1358 9.64189C81.1358 10.1108 80.753 10.4918 80.2798 10.4918C79.8067 10.4918 79.4238 10.1117 79.4238 9.64189C79.4238 9.17295 79.8067 8.79199 80.2798 8.79199C80.753 8.79285 81.1358 9.17295 81.1358 9.64189Z" fill="#253746"/>
</g>
<path id="Vector_6" d="M57.1739 13.7794C53.614 13.7846 50.4972 15.8081 48.9297 18.7447V7.09558H47.8535V23.0386C47.8595 28.1568 52.0707 32.3174 57.235 32.3097C62.3426 32.3012 66.5167 28.1192 66.515 23.0138C66.5142 17.9358 62.3013 13.7717 57.1739 13.7794ZM57.2032 31.3061C52.6178 31.283 48.9392 27.593 48.9306 23.007C48.9211 18.4534 52.6643 14.7549 57.2557 14.7788C61.823 14.8036 65.4689 18.5013 65.4199 23.0582C65.37 27.6725 61.7275 31.3283 57.2032 31.3061Z" fill="#253746"/>
<path id="Vector_7" d="M75.9837 13.9059C72.0186 13.9059 68.7925 17.1013 68.7891 21.0271V31.9493H69.8653V21.0279C69.8679 17.6907 72.6122 14.9659 75.9837 14.9659H76.6917V13.9059H75.9837Z" fill="#253746"/>
</g>
</svg>
