<?xml version="1.0" encoding="utf-8"?>
<!-- Generator: Adobe Illustrator 19.0.1, SVG Export Plug-In . SVG Version: 6.00 Build 0)  -->
<svg version="1.1" id="Layer_1" xmlns="http://www.w3.org/2000/svg" xmlns:xlink="http://www.w3.org/1999/xlink" x="0px" y="0px"
	 viewBox="0 0 847 181" style="enable-background:new 0 0 847 181;" xml:space="preserve">
<style type="text/css">
	.st0{fill:#00ABF4;}
	.st1{fill:none;stroke:#00ABF4;stroke-width:4;stroke-miterlimit:10;}
</style>
<g>
	<path class="st0" d="M96.1,65.7c1.2,0,2.2,0.4,3,1.3c0.8,0.8,1.3,1.8,1.3,3v10.6c0,1.2-0.4,2.2-1.3,3c-0.8,0.8-1.8,1.3-3,1.3H85.6
		c-1.2,0-2.2-0.4-3-1.3c-0.8-0.8-1.3-1.8-1.3-3V70c0-1.2,0.4-2.2,1.3-3c0.8-0.8,1.8-1.3,3-1.3H96.1z"/>
	<path class="st0" d="M96.1,97.2c1.2,0,2.2,0.4,3,1.3c0.8,0.8,1.3,1.8,1.3,3V112c0,1.2-0.4,2.2-1.3,3c-0.8,0.8-1.8,1.3-3,1.3H85.6
		c-1.2,0-2.2-0.4-3-1.3c-0.8-0.8-1.3-1.8-1.3-3v-10.6c0-1.2,0.4-2.2,1.3-3c0.8-0.8,1.8-1.3,3-1.3H96.1z"/>
	<path class="st0" d="M3.9,158.6c-1.4-0.8-2.2-2-2.2-3.6V78.1c0-4.4-0.1-7.9-0.4-10.4c-0.2-2.5-0.6-4.9-1-7.3
		C0.1,58.9,0,57.8,0,57.2c0-1.1,1-2,3.1-2.7c2-0.7,4.4-1.2,7-1.5c2.6-0.3,4.7-0.5,6.4-0.5c1.8,0,3,0.7,3.7,2
		c0.7,1.3,1.3,3.2,1.9,5.6l0.4,1.9c1.7-3.3,4.3-5.9,7.8-8c3.5-2,7.5-3.1,11.9-3.1c5.4,0,10.1,1.6,14.3,4.7c4.2,3.1,7.4,7.7,9.8,13.7
		c2.4,6,3.5,13.2,3.5,21.6c0,8-1.2,15-3.7,21c-2.4,6-6,10.6-10.6,13.9c-4.7,3.3-10.2,4.9-16.8,4.9c-5.6,0-10.7-1.5-15.2-4.7V155
		c0,1.6-0.7,2.8-2.1,3.6c-1.4,0.8-3.6,1.2-6.7,1.2h-4.1C7.6,159.8,5.3,159.4,3.9,158.6z M47.6,90.8c0-14.7-4-22-11.9-22
		c-4.7,0-8.7,2.9-12.2,8.7v32.9c3.4,1.9,6.9,2.8,10.4,2.8C43,113.2,47.6,105.7,47.6,90.8z"/>
	<path class="st0" d="M172.4,97.9h-37.8c0.5,5.7,2.2,9.7,5,12c2.9,2.4,6.9,3.5,12,3.5c2.8,0,5.3-0.3,7.5-1c2.3-0.6,4.7-1.5,7.2-2.5
		c1.6-0.7,2.6-1.1,3.2-1.1c1,0,2.1,0.7,3.3,2.1c1.2,1.4,2.2,3,3.1,4.9s1.3,3.3,1.3,4.3c0,2.3-1.5,4.2-4.6,5.8
		c-3.1,1.6-6.7,2.8-10.9,3.7c-4.2,0.8-7.9,1.3-11,1.3c-13,0-22.7-3.5-29.1-10.5c-6.4-7-9.6-16.7-9.6-29.1c0-14,3.2-24.2,9.6-30.7
		c6.4-6.5,15.2-9.8,26.4-9.8c7.4,0,13.5,1.7,18.3,5.1c4.8,3.4,8.2,7.9,10.4,13.7c2.2,5.7,3.3,12.2,3.3,19.4
		C180,93.9,179.9,97.9,172.4,97.9 M158.6,83.3c0-4.6-0.9-8.2-2.7-11c-1.8-2.8-4.4-4.1-8-4.1c-7.3,0-11.8,5-13.3,15.1H158.6z"/>
</g>
<g>
	<path class="st0" d="M310.8,109.1h-0.2c-0.7,1.8-1.7,3.5-3,5.1c-1.3,1.6-2.9,3-4.8,4.3c-1.9,1.2-4.1,2.2-6.5,2.9
		c-2.4,0.7-5.1,1.1-7.9,1.1c-6.4,0-11.3-1.4-14.8-4.1c-3.5-2.8-5.3-7-5.3-12.8c0-3.5,0.7-6.4,2.1-8.6c1.4-2.2,3.2-4,5.3-5.3
		c2.1-1.3,4.5-2.2,7.1-2.7c2.6-0.5,5.1-0.9,7.5-1.2l6.9-0.6c3.2-0.2,5.7-0.6,7.5-1.1c1.8-0.5,3.2-1.2,4.1-2.1c0.9-0.9,1.5-2,1.8-3.4
		c0.2-1.4,0.4-3.2,0.4-5.3c0-1.6-0.3-3.2-0.9-4.6c-0.6-1.4-1.6-2.6-2.9-3.7c-1.3-1.1-3-1.9-5.1-2.6c-2.1-0.6-4.7-0.9-7.7-0.9
		c-5.4,0-9.7,1.3-13,4c-3.3,2.6-5.1,6.7-5.4,12h-4.4c0.3-6.6,2.4-11.6,6.4-14.9c3.9-3.3,9.5-5,16.8-5s12.5,1.4,15.8,4.3
		c3.3,2.8,5,6.6,5,11.2v34.9c0,0.9,0,1.7,0.1,2.6c0,0.9,0.2,1.6,0.4,2.3c0.2,0.7,0.6,1.3,1.2,1.7c0.5,0.4,1.3,0.6,2.3,0.6
		c0.8,0,1.9-0.1,3.3-0.3v3.7c-1.2,0.3-2.4,0.5-3.6,0.5c-1.8,0-3.2-0.2-4.3-0.7c-1.1-0.5-1.9-1.1-2.4-1.9c-0.5-0.8-0.9-1.7-1.1-2.7
		c-0.2-1.1-0.3-2.2-0.3-3.4V109.1z M310.8,86.9c-1.1,1.3-2.7,2.2-5,2.7c-2.2,0.5-4.7,0.8-7.4,1.1l-7.5,0.7c-2.2,0.2-4.4,0.6-6.5,1
		c-2.2,0.4-4.1,1.1-5.9,2.2c-1.8,1-3.2,2.4-4.3,4.1c-1.1,1.8-1.6,4-1.6,6.8c0,4.4,1.4,7.7,4.2,9.9c2.8,2.1,6.7,3.2,11.6,3.2
		c5.1,0,9.1-0.9,12-2.7c3-1.8,5.2-3.9,6.8-6.3c1.6-2.4,2.5-4.7,3-6.9c0.4-2.2,0.6-3.7,0.6-4.5V86.9z"/>
	<path class="st0" d="M380.4,79.5c-0.2-2.6-0.9-5-2-7c-1.1-2-2.6-3.7-4.4-5c-1.8-1.3-3.9-2.3-6.2-3c-2.4-0.7-4.9-1.1-7.6-1.1
		c-3.7,0-7,0.8-9.9,2.3c-2.9,1.5-5.3,3.5-7.2,6.1c-1.9,2.5-3.4,5.4-4.4,8.6c-1,3.2-1.5,6.6-1.5,10c0,4,0.5,7.8,1.4,11.2
		c0.9,3.4,2.4,6.4,4.3,8.9c1.9,2.5,4.4,4.5,7.2,5.9c2.9,1.4,6.3,2.1,10.2,2.1c2.8,0,5.4-0.5,7.8-1.4c2.4-0.9,4.5-2.2,6.3-3.9
		c1.8-1.6,3.3-3.6,4.5-5.9c1.2-2.3,1.9-4.8,2.3-7.5h4.4c-0.5,3.6-1.4,6.8-2.9,9.6c-1.5,2.8-3.3,5.2-5.6,7.1
		c-2.3,1.9-4.8,3.4-7.7,4.4c-2.9,1-5.9,1.5-9.1,1.5c-4.9,0-9.1-0.9-12.6-2.6c-3.5-1.8-6.3-4.1-8.5-7.1c-2.2-3-3.9-6.4-4.9-10.2
		c-1.1-3.9-1.6-7.9-1.6-12.1c0-4.2,0.6-8.2,1.8-11.9c1.2-3.7,3-7,5.3-9.8c2.3-2.8,5.2-5,8.6-6.7c3.4-1.6,7.4-2.5,11.8-2.5
		c3.3,0,6.3,0.4,9.2,1.2c2.8,0.8,5.4,2,7.6,3.7c2.2,1.6,4,3.7,5.4,6.2c1.4,2.5,2.3,5.5,2.6,8.8H380.4z"/>
	<path class="st0" d="M446.8,79.5c-0.2-2.6-0.9-5-2-7c-1.1-2-2.6-3.7-4.4-5c-1.8-1.3-3.9-2.3-6.2-3c-2.4-0.7-4.9-1.1-7.6-1.1
		c-3.7,0-7,0.8-9.9,2.3c-2.9,1.5-5.3,3.5-7.2,6.1c-1.9,2.5-3.4,5.4-4.4,8.6c-1,3.2-1.5,6.6-1.5,10c0,4,0.5,7.8,1.4,11.2
		c0.9,3.4,2.4,6.4,4.3,8.9c1.9,2.5,4.4,4.5,7.2,5.9c2.9,1.4,6.3,2.1,10.2,2.1c2.8,0,5.4-0.5,7.8-1.4c2.4-0.9,4.5-2.2,6.3-3.9
		c1.8-1.6,3.3-3.6,4.5-5.9c1.2-2.3,1.9-4.8,2.3-7.5h4.4c-0.5,3.6-1.4,6.8-2.9,9.6s-3.3,5.2-5.6,7.1c-2.3,1.9-4.8,3.4-7.7,4.4
		c-2.9,1-5.9,1.5-9.1,1.5c-4.9,0-9.1-0.9-12.6-2.6c-3.5-1.8-6.3-4.1-8.5-7.1c-2.2-3-3.9-6.4-4.9-10.2c-1.1-3.9-1.6-7.9-1.6-12.1
		c0-4.2,0.6-8.2,1.8-11.9c1.2-3.7,3-7,5.3-9.8c2.3-2.8,5.2-5,8.6-6.7c3.4-1.6,7.4-2.5,11.8-2.5c3.3,0,6.3,0.4,9.2,1.2
		c2.8,0.8,5.4,2,7.6,3.7c2.2,1.6,4,3.7,5.4,6.2c1.4,2.5,2.3,5.5,2.6,8.8H446.8z"/>
	<path class="st0" d="M465.3,91c0-4.3,0.6-8.3,1.8-12.1c1.2-3.8,3-7.1,5.3-10c2.3-2.9,5.2-5.2,8.6-6.8c3.4-1.7,7.4-2.5,11.8-2.5
		s8.4,0.8,11.8,2.5c3.4,1.7,6.3,4,8.6,6.8c2.3,2.9,4.1,6.2,5.3,10c1.2,3.8,1.8,7.8,1.8,12.1c0,4.3-0.6,8.3-1.8,12.1
		c-1.2,3.8-3,7.1-5.3,10c-2.3,2.8-5.2,5.1-8.6,6.8c-3.4,1.7-7.4,2.5-11.8,2.5s-8.4-0.8-11.8-2.5c-3.4-1.7-6.3-3.9-8.6-6.8
		c-2.3-2.8-4.1-6.2-5.3-10C465.9,99.3,465.3,95.3,465.3,91z M469.7,91c0,3.6,0.5,7,1.5,10.3c1,3.3,2.5,6.2,4.4,8.8
		c1.9,2.6,4.4,4.6,7.2,6.1c2.9,1.5,6.2,2.3,9.9,2.3s7-0.8,9.9-2.3c2.9-1.5,5.3-3.6,7.2-6.1c1.9-2.6,3.4-5.5,4.4-8.8
		c1-3.3,1.5-6.8,1.5-10.3c0-3.6-0.5-7-1.5-10.3c-1-3.3-2.5-6.2-4.4-8.8c-1.9-2.6-4.4-4.6-7.2-6.1c-2.9-1.5-6.2-2.3-9.9-2.3
		s-7,0.8-9.9,2.3c-2.9,1.5-5.3,3.6-7.2,6.1c-1.9,2.6-3.4,5.5-4.4,8.8C470.2,84,469.7,87.4,469.7,91z"/>
	<path class="st0" d="M584.1,121h-4.4v-12.8h-0.2c-0.8,2.3-1.9,4.3-3.3,6c-1.4,1.8-3.1,3.3-5,4.5c-1.9,1.2-4,2.2-6.2,2.8
		c-2.3,0.6-4.6,0.9-6.9,0.9c-3.5,0-6.5-0.4-8.9-1.3c-2.5-0.9-4.5-2-6-3.4c-1.6-1.4-2.8-3-3.7-4.7c-0.9-1.8-1.5-3.5-1.9-5.3
		c-0.4-1.8-0.6-3.5-0.7-5.2c-0.1-1.7-0.1-3.1-0.1-4.4V61h4.4v37.9c0,1.6,0.1,3.4,0.4,5.7c0.2,2.2,0.9,4.4,2,6.4
		c1.1,2.1,2.8,3.8,5.1,5.3c2.3,1.5,5.4,2.2,9.6,2.2c3.3,0,6.4-0.6,9-1.9c2.7-1.2,5-3,6.8-5.2c1.9-2.2,3.3-4.9,4.3-7.9
		c1-3.1,1.5-6.4,1.5-10.1V61h4.4V121z"/>
	<path class="st0" d="M603,61h4.4v12.8h0.2c0.8-2.3,1.9-4.3,3.3-6c1.4-1.8,3.1-3.2,5-4.5c1.9-1.2,4-2.2,6.2-2.8
		c2.3-0.6,4.6-0.9,6.9-0.9c3.5,0,6.5,0.4,8.9,1.3c2.5,0.9,4.5,2,6,3.4c1.6,1.4,2.8,3,3.7,4.7c0.9,1.8,1.5,3.5,1.9,5.3
		c0.4,1.8,0.6,3.5,0.7,5.2c0.1,1.7,0.1,3.1,0.1,4.4V121h-4.4V83c0-1.5-0.1-3.3-0.4-5.6c-0.2-2.3-0.9-4.4-2-6.5
		c-1.1-2.1-2.8-3.8-5.1-5.3c-2.3-1.5-5.5-2.2-9.5-2.2c-3.4,0-6.5,0.6-9.1,1.9c-2.6,1.2-4.9,3-6.8,5.2c-1.9,2.2-3.3,4.9-4.3,7.9
		c-1,3.1-1.5,6.4-1.5,10.1V121H603V61z"/>
	<path class="st0" d="M691.5,64.8h-13.1v41.9c0,2.4,0.3,4.3,0.8,5.7c0.5,1.4,1.4,2.5,2.5,3.2c1.1,0.7,2.5,1.2,4.1,1.3
		c1.6,0.2,3.4,0.2,5.5,0.1v3.9c-2.3,0.2-4.5,0.1-6.6-0.1c-2.1-0.2-4-0.8-5.7-1.8c-1.6-1-2.9-2.4-3.9-4.4c-1-1.9-1.4-4.6-1.2-8.1
		V64.8h-11.1V61H674V42.3h4.4V61h13.1V64.8z"/>
	<path class="st0" d="M706.6,49.7v-12h4.4v12H706.6z M706.6,121V61h4.4v60H706.6z"/>
	<path class="st0" d="M731,61h4.4v12.8h0.2c0.8-2.3,1.9-4.3,3.3-6c1.4-1.8,3.1-3.2,5-4.5c1.9-1.2,4-2.2,6.2-2.8
		c2.3-0.6,4.6-0.9,6.9-0.9c3.5,0,6.5,0.4,8.9,1.3c2.5,0.9,4.5,2,6,3.4c1.6,1.4,2.8,3,3.7,4.7c0.9,1.8,1.5,3.5,1.9,5.3
		c0.4,1.8,0.6,3.5,0.7,5.2c0.1,1.7,0.1,3.1,0.1,4.4V121h-4.4V83c0-1.5-0.1-3.3-0.4-5.6c-0.2-2.3-0.9-4.4-2-6.5
		c-1.1-2.1-2.8-3.8-5.1-5.3c-2.3-1.5-5.5-2.2-9.5-2.2c-3.4,0-6.5,0.6-9.1,1.9c-2.6,1.2-4.9,3-6.8,5.2c-1.9,2.2-3.3,4.9-4.3,7.9
		c-1,3.1-1.5,6.4-1.5,10.1V121H731V61z"/>
	<path class="st0" d="M847,61v56.9c0,3.3-0.4,6.6-1.2,9.7c-0.8,3.2-2.1,5.9-4,8.3c-1.9,2.4-4.5,4.3-7.9,5.8
		c-3.3,1.4-7.6,2.2-12.7,2.2c-3.2,0-6.2-0.3-9-1c-2.8-0.7-5.2-1.7-7.3-3.2c-2.1-1.4-3.8-3.3-5.1-5.7c-1.3-2.4-2-5.3-2.2-8.8h4.4
		c0.2,2.6,0.9,4.9,2,6.8c1.1,1.9,2.5,3.4,4.3,4.6c1.8,1.2,3.7,2.1,5.9,2.6c2.2,0.5,4.5,0.8,7,0.8c4.1,0,7.6-0.6,10.3-1.9
		c2.8-1.2,5-2.9,6.6-4.8s2.8-4.2,3.4-6.8c0.7-2.5,1-5.1,1-7.6v-13.8h-0.3c-2.1,4.4-5,7.8-8.6,10.2c-3.6,2.3-8,3.5-13.1,3.5
		c-4.4,0-8.3-0.8-11.5-2.3c-3.2-1.5-5.9-3.6-8-6.3c-2.1-2.7-3.7-5.8-4.8-9.4c-1-3.6-1.6-7.5-1.6-11.7c0-4,0.6-7.7,1.7-11.3
		c1.1-3.6,2.8-6.7,5-9.4c2.2-2.7,4.9-4.8,8.1-6.4c3.2-1.6,6.9-2.4,11.2-2.4c4.7,0,9.1,1.2,13.1,3.6c4,2.4,6.9,5.8,8.6,10.3h0.2V61
		H847z M820.7,63.4c-3.7,0-6.8,0.7-9.5,2.2c-2.7,1.5-4.9,3.4-6.7,5.8c-1.8,2.4-3.1,5.2-4,8.2c-0.9,3.1-1.3,6.2-1.3,9.4
		c0,3.5,0.4,6.8,1.3,10c0.9,3.2,2.3,5.9,4.1,8.2c1.8,2.3,4.1,4.2,6.8,5.5c2.7,1.4,5.8,2,9.3,2c3.7,0,6.8-0.7,9.6-2.1
		c2.7-1.4,5-3.3,6.8-5.7c1.8-2.4,3.2-5.2,4.1-8.2c0.9-3.1,1.3-6.3,1.3-9.7c0-3.3-0.4-6.6-1.3-9.7c-0.9-3.1-2.3-5.9-4.1-8.2
		c-1.8-2.4-4.1-4.3-6.8-5.7C827.5,64.1,824.3,63.4,820.7,63.4z"/>
</g>
<line class="st1" x1="223.4" y1="0" x2="223.4" y2="181"/>
</svg>
