<svg xmlns="http://www.w3.org/2000/svg" viewbox="0 0 326 49" width="326" height="49" fill="none"><g clip-path="url(#a)" fill="#141F2E"><path d="M0 8.46V.81h33.99v7.65H21.21v39.58h-8.45V8.46H0ZM56.05 12.4l-7.84 19.25h15.68L56.05 12.4ZM59.62.8l19.66 47.26h-8.9l-3.86-9.41H45.56l-3.86 9.41h-8.92L52.44.81h7.18ZM96.29.8v39.6H115v7.64H87.84V.8h8.45V.8ZM172.4.8l24.95 32.81V.81h8.18v47.25h-6.89l-25.47-33.41v33.41H165V.81h7.42ZM240.09 41.35c9.39 0 16.55-7.31 16.55-16.82 0-9.42-7.16-16.88-16.55-16.88s-16.55 7.4-16.55 16.88c-.03 9.57 7.14 16.82 16.55 16.82Zm0-41.35c13.85 0 24.94 10.65 24.94 24.53S253.95 49 240.1 49c-13.8 0-24.87-10.59-24.87-24.47C215.22 10.65 226.3 0 240.1 0ZM284.85.8l13.58 33.9L312.08.8h6.63L326 48.07h-8.12l-4.6-30.16-11.82 30.16h-6.02l-11.82-30.22-4.6 30.22h-8.12L278.2.81h6.65ZM132.6 40.4l-6.26-10.02-2.2 1.38v16.28h30.49V40.4h-22.04Z"></path><path d="m134.2 34.67 18.56-11.69 1.47-5.44-5.51-1.04-12.13 7.63-4-6.41V8.46h21.55V.81h-30v16.65l-16.45 10.37 4.05 6.46 15.95-10.03 6.51 10.41Z"></path></g><defs><clipPath id="a"><path fill="#fff" d="M0 0h326v49H0z"></path></clipPath></defs></svg> 