<svg xmlns="http://www.w3.org/2000/svg" viewBox="0 0 111.72 20.81"><defs><style>.cls-1{fill:#e70641;}.cls-2{fill:#231f20;}</style></defs><title>visma-logo</title><g id="Layer_3" data-name="Layer 3"><path class="cls-1" d="M40.35,20.35c6.08.52,12.79,3.61,16.62,8,4.9,5.61,3.21,11.23-3.77,12.54s-16.61-2.17-21.52-7.79c-3.75-4.3-3.64-8.59-.26-11L50.84,36.47Z" transform="translate(-28.88 -20.35)"/><path class="cls-2" d="M136.26,40.85,133.83,31c-.35-1.16-.49-2.33-.73-3.49H133c-.21,1.19-.3,2.36-.62,3.55L130,40.85h-4.22l5.66-20.42h3.3l5.91,20.42Z" transform="translate(-28.88 -20.35)"/><path class="cls-2" d="M71.8,20.43l2.44,9.8c.35,1.16.49,2.33.73,3.49H75c.21-1.19.3-2.36.62-3.55l2.46-9.75h4.23L76.68,40.85H73.37l-5.9-20.42Z" transform="translate(-28.88 -20.35)"/><path class="cls-2" d="M89.4,20.43V40.85h-4V20.43Z" transform="translate(-28.88 -20.35)"/><path class="cls-2" d="M112.22,20.43l2,12.05h.05l1.62-12.05h5.42l2.14,20.42h-4.14l-1-14.71h-.05l-.65,5-1.73,9.67h-3.11l-2-9.78-.68-4.55v-.38h-.05l-.59,14.71h-4.33l1.79-20.42Z" transform="translate(-28.88 -20.35)"/><path class="cls-2" d="M99.41,20.43a5.06,5.06,0,0,0-1.58,2.21c-1.06,2.54.08,4.5,1.07,6.22.14.25.3.51.44.77,2.18,3.74,3,6.49,1.41,10.41-.12.28-.38.8-.38.8H95.5A5.07,5.07,0,0,0,97,38.91c1.12-2.7-.2-5.16-1.48-7.54-1.53-2.87-3.12-5.83-1.44-9.9.16-.38.51-1,.51-1Z" transform="translate(-28.88 -20.35)"/></g></svg>