<?xml version="1.0" encoding="UTF-8"?>
<svg width="199px" height="51px" viewBox="0 0 199 51" version="1.1" xmlns="http://www.w3.org/2000/svg" xmlns:xlink="http://www.w3.org/1999/xlink">
    <title>Untitled 5</title>
    <g id="Page-1" stroke="none" stroke-width="1" fill="none" fill-rule="evenodd">
        <path d="M22.8974286,49.68 C25.3454286,49.68 27.8654286,48.312 29.2334286,45 L44.7854286,8.064 C45.2174286,6.984 45.4334286,5.904 45.4334286,5.112 C45.4334286,2.016 42.9854286,0 40.2494286,0 C37.5854286,0 36.0014286,1.224 34.8494286,4.32 C31.2494286,13.896 27.0014286,24.12 23.0414286,34.848 C19.0814286,24.12 21.5097176,30.4411523 17.3337176,20.0011523 C16.4697176,17.8411523 14.4537176,16.3291523 12.0777176,16.3291523 C9.05371763,16.3291523 6.60571763,18.8491523 6.60571763,21.8731523 C6.60571763,22.6651523 6.82171763,23.6731523 7.32571763,24.8251523 L16.4174286,45 C17.8574286,48.384 20.4494286,49.68 22.8974286,49.68 Z" id="Path" fill="#0087EE" fill-rule="nonzero"></path>
        <path d="M61.6167143,16.056 C71.3367143,16.056 79.1847143,22.896 79.1847143,32.904 C79.1847143,42.984 71.3367143,50.04 61.6167143,50.04 C51.9687143,50.04 44.0487143,42.984 44.0487143,32.904 C44.0487143,22.896 51.9687143,16.056 61.6167143,16.056 Z M61.6167143,25.128 C58.1607143,25.128 54.8487143,27.72 54.8487143,32.904 C54.8487143,38.16 58.1607143,40.968 61.6167143,40.968 C65.0727143,40.968 68.3847143,38.16 68.3847143,32.904 C68.3847143,27.72 65.0727143,25.128 61.6167143,25.128 Z" id="Combined-Shape" fill="#0087EE" fill-rule="nonzero"></path>
        <path d="M5.616,11.232 C8.784,11.232 11.232,8.856 11.232,5.688 C11.232,2.592 8.784,0.144 5.616,0.144 C2.448,0.144 0,2.592 0,5.688 C0,8.856 2.448,11.232 5.616,11.232 Z" id="Path" fill="#0087EE" fill-rule="nonzero"></path>
        <path d="M90.616,49.68 C93.568,49.68 95.944,47.232 95.944,44.28 L95.944,21.744 C95.944,18.864 93.568,16.416 90.616,16.416 C87.736,16.416 85.288,18.864 85.288,21.744 L85.288,44.28 C85.288,47.232 87.736,49.68 90.616,49.68 Z" id="Path" fill="#0087EE" fill-rule="nonzero"></path>
        <path d="M118.679286,49.896 C122.711286,49.896 125.447286,48.672 126.455286,48.24 C128.615286,47.16 129.839286,45.936 129.839286,43.92 C129.839286,41.472 128.039286,39.384 125.591286,39.456 C124.655286,39.528 123.791286,39.816 122.927286,40.104 C122.207286,40.32 121.343286,40.464 120.407286,40.464 C118.319286,40.464 116.807286,39.312 116.807286,36.792 L116.807286,25.632 L124.943286,25.632 C127.391286,25.632 129.407286,23.688 129.407286,21.168 C129.407286,18.72 127.391286,16.704 124.943286,16.704 L116.807286,16.704 L116.807286,14.616 C116.807286,11.952 115.295286,10.872 113.711286,10.872 C112.631286,10.872 111.911286,11.376 111.119286,12.024 L102.047286,19.656 C100.895286,20.664 100.463286,21.456 100.463286,22.536 C100.463286,24.336 101.903286,25.632 103.703286,25.632 L106.151286,25.632 L106.151286,38.88 C106.151286,45.936 110.255286,49.896 118.679286,49.896 Z" id="Path" fill="#0087EE" fill-rule="nonzero"></path>
        <path d="M149.694571,49.896 C153.726571,49.896 156.462571,48.672 157.470571,48.24 C159.630571,47.16 160.854571,45.936 160.854571,43.92 C160.854571,41.472 159.054571,39.384 156.606571,39.456 C155.670571,39.528 154.806571,39.816 153.942571,40.104 C153.222571,40.32 152.358571,40.464 151.422571,40.464 C149.334571,40.464 147.822571,39.312 147.822571,36.792 L147.822571,25.632 L155.958571,25.632 C158.406571,25.632 160.422571,23.688 160.422571,21.168 C160.422571,18.72 158.406571,16.704 155.958571,16.704 L147.822571,16.704 L147.822571,14.616 C147.822571,11.952 146.310571,10.872 144.726571,10.872 C143.646571,10.872 142.926571,11.376 142.134571,12.024 L133.062571,19.656 C131.910571,20.664 131.478571,21.456 131.478571,22.536 C131.478571,24.336 132.918571,25.632 134.718571,25.632 L137.166571,25.632 L137.166571,38.88 C137.166571,45.936 141.270571,49.896 149.694571,49.896 Z" id="Path" fill="#0087EE" fill-rule="nonzero"></path>
        <path d="M181.141857,16.056 C190.861857,16.056 198.709857,22.896 198.709857,32.904 C198.709857,42.984 190.861857,50.04 181.141857,50.04 C171.493857,50.04 163.573857,42.984 163.573857,32.904 C163.573857,22.896 171.493857,16.056 181.141857,16.056 Z M181.141857,25.128 C177.685857,25.128 174.373857,27.72 174.373857,32.904 C174.373857,38.16 177.685857,40.968 181.141857,40.968 C184.597857,40.968 187.909857,38.16 187.909857,32.904 C187.909857,27.72 184.597857,25.128 181.141857,25.128 Z" id="Combined-Shape" fill="#0087EE" fill-rule="nonzero"></path>
    </g>
</svg>