<?xml version="1.0" encoding="utf-8"?>
<!-- Generator: Adobe Illustrator 21.0.0, SVG Export Plug-In . SVG Version: 6.00 Build 0)  -->
<svg version="1.1" id="Lager_1" xmlns="http://www.w3.org/2000/svg" xmlns:xlink="http://www.w3.org/1999/xlink" x="0px" y="0px"
	 viewBox="0 0 465.4 74.8" style="enable-background:new 0 0 465.4 74.8;" xml:space="preserve">
<style type="text/css">
	.st0{fill:#444444;}
</style>
<g>
	<path class="st0" d="M81.7,49.6c1.8-6.3,3.6-12.4,5.4-18.4c2.8-9.7,5.6-19.4,8.5-29.1C96.1,0.3,96.5,0,98.4,0c4.6,0,9.2,0,13.8,0
		c2.2,0,3,1,2.3,3.1c-5,15.1-10,30.2-15,45.3c-2.7,8.1-5.4,16.3-8.1,24.4c-0.5,1.5-1,1.9-2.6,1.9c-4.7,0-9.4,0-14,0
		c-1.6,0-2.1-0.3-2.6-1.9c-4.9-15.5-9.7-30.9-14.6-46.4c-0.1-0.4-0.3-0.9-0.6-1.6C56,28.2,55,31.2,54,34.3
		c-4.1,12.8-8.2,25.6-12.3,38.4c-0.6,1.7-1,2-2.9,2c-4.6,0-9.3,0-13.9,0c-1.7,0-2.2-0.3-2.7-1.9C14.9,49.6,7.6,26.3,0.2,3.1
		C-0.4,1,0.3,0,2.5,0c4.6,0,9.2,0,13.8,0c1.9,0,2.3,0.3,2.8,2.2c4.3,15.3,8.7,30.7,13,46c0.1,0.4,0.2,0.8,0.4,1.4
		c0.5-1.4,0.9-2.6,1.2-3.7c4.6-14.7,9.3-29.3,13.9-44C48.2,0.3,48.6,0,50.3,0c4.7,0,9.4,0,14.2,0C66.1,0,66.5,0.3,67,2
		c4.8,15.5,9.6,31,14.3,46.6C81.4,48.8,81.5,49.1,81.7,49.6z"/>
	<path class="st0" d="M345.1,34c2.1,1.4,4.3,2.7,6.1,4.3c7.8,6.8,9.6,24.5-4.5,31.8c-5.2,2.7-10.8,4.2-16.7,4.4
		c-9.8,0.3-19.6,0.2-29.4,0.3c-5.1,0-10.2,0-15.2,0c-1.8,0-2.5-0.7-2.5-2.5c0-23.3,0-46.5,0-69.8c0-1.9,0.6-2.5,2.6-2.5
		c14,0,28,0,42,0c5.8,0,11.3,1.1,16.6,3.7c11.6,5.7,12.7,22.8,1.8,29.8C345.5,33.7,345.2,33.9,345.1,34z M301.7,60.7
		c0.3,0,0.6,0.1,0.8,0.1c8.1,0,16.2,0,24.4,0c2.4,0,4.8-0.4,7-1.5c3.3-1.7,4.7-4.6,4.5-8.2c-0.1-3.5-1.9-5.9-5-7.2
		c-2.4-1-4.9-1.3-7.4-1.3c-7.6,0-15.3,0-22.9,0c-0.4,0-0.8,0-1.3,0.1C301.7,48.6,301.7,54.6,301.7,60.7z M301.7,29.7
		c0.6,0,1,0,1.4,0c7,0,14,0,21,0c1,0,2-0.1,3-0.3c5.7-0.9,8.3-4.5,7.2-10c-0.4-1.9-1.4-3.4-3.2-4c-1.9-0.6-3.9-1.2-5.8-1.2
		c-7.6-0.2-15.1-0.1-22.7-0.1c-0.3,0-0.6,0.1-0.9,0.1C301.7,19.3,301.7,24.4,301.7,29.7z"/>
	<path class="st0" d="M183.8,38.8c0.2,0.2,0.3,0.3,0.5,0.3c5.5,3.2,7.9,8.1,8,14.3c0.1,4.4,0.3,8.7,1.4,12.9
		c0.5,1.9,1.3,3.6,2.6,5.2c0.4,0.5,0.6,1.5,0.3,2c-0.2,0.5-1.1,1.1-1.7,1.1c-5.3,0.1-10.6,0.1-15.8,0c-0.6,0-1.4-0.5-1.8-1.1
		c-1.6-2.1-2.1-4.5-2.3-7.1c-0.2-3.3-0.3-6.5-0.5-9.8c-0.1-1.1-0.3-2.2-0.6-3.3c-1.1-4.5-4.2-6.8-8.7-7.5c-1.6-0.2-3.2-0.4-4.8-0.4
		c-6.4,0-12.8,0-19.2,0c-0.4,0-0.8,0-1.3,0c0,0.6,0,1,0,1.5c0,8.3,0,16.6,0,25c0,2.1-0.6,2.7-2.7,2.7c-4.5,0-9,0-13.6,0
		c-1.9,0-2.5-0.6-2.5-2.5c0-23.2,0-46.5,0-69.7c0-2,0.6-2.5,2.6-2.5c13.8,0,27.6,0,41.4,0c6,0,11.9,0.8,17.4,3.4
		c7.9,3.7,12.1,11.4,11.1,20.2C192.8,30.3,189.4,35.2,183.8,38.8z M140,32.3c0.6,0,1,0,1.4,0c6.8,0,13.7,0,20.5,0
		c1.3,0,2.6-0.1,3.9-0.2c5.6-0.6,8.5-3.2,9.1-8.1c0.6-5.1-1.9-8.5-6.9-9.4c-1.6-0.3-3.2-0.4-4.8-0.5c-7.3-0.1-14.6,0-22-0.1
		c-0.4,0-0.8,0-1.3,0C140,20.2,140,26.1,140,32.3z"/>
	<path class="st0" d="M224.3,14.6c0,4.9,0,9.7,0,14.6c0.5,0,1,0.1,1.5,0.1c12.8,0,25.6,0,38.4,0c2.3,0,2.9,0.6,2.9,2.9
		c0,2.8,0,5.7,0,8.5c0,1.9-0.7,2.6-2.6,2.6c-12.9,0-25.8,0-38.8,0c-0.5,0-0.9,0-1.5,0c0,5.6,0,11.1,0,16.8c0.5,0,0.9,0,1.4,0
		c14.3,0,28.6,0,42.8,0c2.3,0,2.8,0.5,2.8,2.8c0,3.1,0,6.2,0,9.4c0,1.8-0.7,2.5-2.5,2.5c-20.3,0-40.6,0-60.9,0
		c-1.8,0-2.5-0.7-2.5-2.4c0-23.3,0-46.6,0-69.9c0-1.7,0.6-2.4,2.4-2.4c20.1,0,40.2,0,60.2,0c1.8,0,2.4,0.6,2.4,2.4
		c0,3.3,0,6.6,0,9.8c0,1.7-0.6,2.3-2.4,2.3c-14.1,0-28.2,0-42.2,0C225.4,14.6,224.9,14.6,224.3,14.6z"/>
	<path class="st0" d="M419.6,14.6c-0.7,0-1.1,0-1.6,0c-7.6,0-15.2,0-22.8,0c-1.9,0-2.5-0.6-2.5-2.5c0-3.2,0-6.4,0-9.6
		c0-1.8,0.6-2.5,2.4-2.5c22.6,0,45.2,0,67.8,0c1.8,0,2.4,0.6,2.4,2.5c0,3.2,0,6.5,0,9.7c0,1.8-0.6,2.4-2.4,2.4c-7.7,0-15.4,0-23,0
		c-0.5,0-0.9,0-1.6,0c0,0.6,0,1.1,0,1.6c0,18.6,0,37.1,0,55.7c0,2.4-0.5,2.9-2.9,2.9c-4.2,0-8.4,0-12.6,0c-3,0-3.3-0.4-3.3-3.3
		c0-18.4,0-36.8,0-55.2C419.6,15.8,419.6,15.3,419.6,14.6z"/>
	<path class="st0" d="M366.2,37.3c0-11.6,0-23.2,0-34.8c0-2,0.6-2.6,2.6-2.6c4.6,0,9.1,0,13.7,0c1.9,0,2.5,0.6,2.5,2.5
		c0,23.2,0,46.5,0,69.7c0,2-0.6,2.6-2.6,2.6c-4.6,0-9.1,0-13.7,0c-1.9,0-2.5-0.6-2.5-2.5C366.2,60.6,366.2,49,366.2,37.3z"/>
</g>
</svg>
